<?xml version="1.0" standalone="no"?>
<!DOCTYPE svg PUBLIC "-//W3C//DTD SVG 20010904//EN"
 "http://www.w3.org/TR/2001/REC-SVG-20010904/DTD/svg10.dtd">
<svg version="1.0" xmlns="http://www.w3.org/2000/svg"
 width="2476.000000pt" height="2281.000000pt" viewBox="0 0 2476.000000 2281.000000"
 preserveAspectRatio="xMidYMid meet">

<g transform="translate(0.000000,2281.000000) scale(0.100000,-0.100000)"
fill="#000000" stroke="none">
<path d="M11470 22169 c-592 -29 -1359 -137 -1895 -267 -126 -31 -142 -28 200
-41 478 -19 1064 -51 1245 -67 166 -14 289 -34 490 -78 92 -21 399 -115 567
-174 78 -27 144 -47 147 -44 3 3 6 158 6 344 l0 338 -297 -1 c-164 -1 -372 -6
-463 -10z"/>
<path d="M10015 21028 c-298 -12 -723 -59 -950 -103 -38 -7 -88 -16 -110 -20
-22 -3 -67 -12 -100 -20 -175 -41 -323 -77 -345 -85 -14 -4 -65 -20 -115 -35
-191 -57 -449 -155 -665 -252 -30 -13 -82 -36 -115 -51 -239 -107 -674 -336
-1070 -562 -93 -54 -195 -111 -225 -127 -30 -17 -73 -41 -95 -53 -22 -13 -60
-34 -85 -48 -25 -13 -58 -32 -75 -42 -16 -9 -55 -31 -85 -47 -30 -17 -75 -41
-100 -55 -218 -122 -664 -344 -900 -448 -47 -21 -121 -54 -165 -75 -44 -20
-96 -43 -115 -51 -19 -9 -48 -22 -65 -29 -16 -8 -84 -37 -150 -66 -66 -28
-138 -59 -160 -69 -22 -11 -84 -37 -139 -59 -54 -22 -109 -47 -122 -55 -77
-51 -539 -608 -798 -963 -191 -262 -554 -818 -542 -830 2 -2 41 8 87 21 46 14
129 39 184 55 219 65 693 228 905 311 30 12 78 30 105 40 69 25 358 144 450
184 17 8 46 20 65 29 66 29 355 159 440 199 101 47 524 259 595 298 28 15 91
49 140 75 50 26 99 53 110 60 11 7 45 26 75 42 30 17 73 40 95 53 22 13 65 37
95 53 30 17 89 51 130 75 76 45 113 67 174 101 18 11 64 38 102 61 38 24 83
50 99 60 17 9 91 54 165 100 74 46 147 90 162 99 27 16 147 91 218 136 19 13
87 55 150 95 63 40 138 87 165 105 152 97 298 187 430 263 33 19 76 44 95 55
134 77 315 172 536 282 802 396 1708 684 2534 805 309 45 454 55 838 55 l353
0 -3 100 -3 100 -70 18 c-700 177 -1391 247 -2130 215z"/>
<path d="M8809 18981 c-96 -37 -272 -146 -373 -231 -124 -105 -221 -196 -400
-379 -380 -389 -569 -572 -639 -620 -12 -8 -24 -18 -27 -21 -10 -12 -183 -132
-206 -142 -13 -6 -24 -15 -24 -20 0 -4 -4 -8 -10 -8 -5 0 -36 -17 -67 -37 -32
-21 -70 -44 -84 -53 -14 -8 -56 -33 -93 -55 -38 -22 -80 -47 -94 -56 -32 -19
-91 -53 -152 -87 -25 -13 -49 -28 -55 -32 -5 -4 -36 -21 -67 -39 -32 -17 -84
-45 -115 -62 -32 -18 -62 -35 -68 -39 -5 -4 -55 -31 -110 -60 -55 -29 -115
-62 -132 -72 -18 -10 -48 -26 -65 -36 -18 -10 -78 -43 -133 -72 -55 -29 -113
-60 -130 -70 -36 -21 -105 -60 -195 -108 -36 -20 -87 -48 -115 -64 -27 -15
-57 -31 -65 -35 -8 -4 -53 -29 -100 -56 -47 -27 -100 -58 -117 -68 -79 -46
-107 -62 -263 -154 -91 -54 -180 -106 -197 -116 -76 -44 -105 -61 -243 -141
-80 -47 -172 -100 -205 -118 -33 -18 -80 -44 -105 -58 -90 -49 -427 -219 -490
-246 -91 -40 -150 -66 -185 -82 -152 -69 -538 -188 -725 -223 -36 -7 -83 -16
-106 -21 -94 -21 -377 -41 -541 -39 -101 2 -177 -1 -182 -6 -12 -12 -61 -140
-61 -159 0 -9 22 -15 78 -19 42 -3 138 -11 212 -16 861 -66 1522 -26 2352 143
148 30 464 108 593 146 33 10 103 30 155 45 126 37 425 137 525 175 44 17 94
36 110 41 17 5 44 15 60 23 17 8 75 34 130 57 208 88 484 231 650 337 74 47
213 140 230 154 5 4 57 45 115 90 162 125 371 321 512 478 86 97 271 324 306
375 14 22 46 66 69 97 24 31 43 58 43 61 0 2 28 47 63 99 34 52 67 103 74 114
128 208 254 425 351 604 110 204 149 279 263 505 67 132 130 255 141 272 25
42 27 92 3 109 -24 17 -38 16 -96 -5z"/>
<path d="M11995 18915 c-175 -27 -233 -38 -310 -57 -263 -66 -421 -128 -733
-287 -85 -44 -354 -225 -487 -328 -218 -170 -533 -467 -776 -733 -68 -74 -128
-140 -134 -146 -5 -6 -32 -37 -60 -68 -27 -32 -59 -68 -70 -80 -11 -13 -40
-47 -65 -76 -25 -29 -52 -60 -60 -69 -9 -9 -33 -38 -55 -66 -22 -27 -47 -57
-55 -66 -18 -19 -93 -108 -100 -119 -3 -4 -25 -31 -50 -60 -103 -120 -127
-149 -170 -200 -74 -88 -250 -294 -295 -345 -304 -341 -573 -610 -800 -800
-77 -64 -76 -63 -170 -134 -44 -34 -86 -66 -93 -71 -19 -17 -142 -100 -146
-100 -3 0 -32 -18 -65 -40 -33 -22 -62 -40 -65 -40 -3 0 -20 -10 -39 -23 -18
-12 -91 -51 -161 -86 -70 -35 -130 -70 -133 -78 -3 -9 -2 -27 3 -42 11 -32 49
-39 96 -18 18 8 87 36 153 62 66 26 134 52 150 59 17 7 53 22 80 34 120 50
358 154 445 195 52 24 151 70 220 102 313 144 645 317 715 372 6 4 30 21 55
38 42 28 139 103 150 116 3 3 68 57 145 119 271 218 408 295 598 335 71 15
127 19 127 9 0 -3 -35 -47 -77 -97 -237 -281 -499 -552 -728 -758 -114 -102
-392 -327 -455 -369 -12 -8 -32 -22 -44 -31 -62 -47 -311 -208 -403 -261 -18
-10 -50 -28 -70 -39 -62 -35 -262 -134 -370 -183 -482 -216 -1077 -372 -1623
-425 -276 -27 -341 -32 -560 -38 -386 -10 -1039 30 -1660 102 -69 8 -190 21
-270 30 -80 8 -181 20 -225 25 -44 6 -127 15 -185 20 -58 5 -152 13 -210 19
-591 57 -1322 84 -1355 50 -15 -16 -84 -272 -144 -539 -47 -204 -48 -200 58
-200 200 0 667 -84 1256 -225 33 -8 107 -26 165 -39 58 -14 173 -41 255 -61
161 -39 415 -99 505 -120 30 -7 98 -23 150 -35 109 -26 145 -33 410 -89 107
-23 220 -46 250 -51 202 -35 284 -49 350 -59 41 -6 102 -16 135 -21 347 -57
1174 -100 1632 -86 227 7 615 32 728 46 44 6 118 15 165 21 47 5 144 19 215
30 618 99 1164 258 1665 484 100 45 341 166 405 203 608 354 996 687 1690
1452 82 91 177 194 211 230 33 36 94 101 135 145 41 44 135 142 210 218 l136
139 7 1142 c3 627 9 1351 12 1609 l7 467 -69 -1 c-38 -1 -105 -7 -149 -14z"/>
<path d="M14730 18205 l0 -545 655 0 c360 0 655 -4 655 -8 0 -5 -344 -941
-765 -2080 l-765 -2072 0 -85 0 -85 1650 0 1650 0 0 555 0 555 -720 0 c-396 0
-720 1 -720 3 0 1 349 936 775 2077 l775 2074 0 78 0 78 -1595 0 -1595 0 0
-545z"/>
<path d="M12138 13422 c-1 -5 -32 -31 -67 -58 -35 -27 -91 -70 -125 -97 -34
-26 -86 -65 -116 -87 -30 -22 -81 -59 -113 -82 -93 -69 -427 -310 -482 -347
-27 -19 -52 -37 -55 -40 -3 -4 -30 -23 -60 -44 -267 -179 -871 -639 -992 -756
-48 -45 -60 -79 -35 -99 6 -5 37 -17 67 -25 204 -57 525 -45 786 28 309 87
660 247 1052 480 9 6 49 29 88 52 l71 42 6 182 c4 100 7 334 7 521 0 285 -2
338 -14 338 -8 0 -16 -4 -18 -8z"/>
<path d="M1298 12703 c-10 -2 -18 -7 -18 -10 0 -2 -7 -59 -15 -126 -39 -328
-65 -758 -65 -1098 l0 -236 58 -16 c31 -9 98 -26 147 -37 50 -12 124 -30 165
-41 41 -11 93 -25 115 -30 41 -11 120 -34 325 -96 114 -34 402 -125 720 -228
180 -58 355 -113 465 -147 39 -11 88 -27 110 -34 22 -7 99 -28 170 -48 482
-131 786 -189 1330 -256 269 -32 736 -37 1060 -11 489 40 872 125 1305 288 72
27 80 30 162 67 31 14 59 26 62 26 8 0 229 110 302 150 303 167 582 358 839
574 83 69 93 87 75 121 -17 32 -48 32 -131 -1 -35 -14 -82 -32 -104 -39 -22
-8 -101 -35 -175 -60 -450 -154 -915 -261 -1360 -313 -215 -24 -797 -24 -970
1 -221 33 -385 67 -555 117 -64 19 -178 57 -205 68 -14 6 -72 29 -130 51 -236
90 -460 194 -1050 487 -534 266 -769 379 -895 430 -33 14 -69 29 -80 34 -11 5
-49 21 -85 35 -36 15 -74 31 -85 36 -413 172 -1016 321 -1390 342 -44 3 -88 3
-97 0z"/>
<path d="M1204 10884 c10 -191 35 -537 46 -634 6 -47 10 -92 10 -101 0 -17 56
-48 145 -78 33 -11 92 -32 130 -46 39 -14 81 -30 95 -35 25 -8 89 -34 125 -50
11 -5 74 -32 140 -61 221 -96 536 -264 721 -386 106 -69 158 -70 156 -3 -1 46
-96 228 -194 374 -13 18 -110 146 -138 180 -46 57 -367 372 -435 426 -44 36
-87 70 -95 77 -8 7 -60 46 -115 87 -55 41 -121 91 -147 111 -25 19 -50 35 -56
35 -5 0 -17 9 -27 20 -10 11 -22 20 -27 20 -4 0 -29 15 -55 34 -63 44 -232
142 -262 151 l-23 7 6 -128z"/>
<path d="M12065 10954 c-295 -169 -589 -317 -880 -443 -66 -29 -129 -57 -139
-63 -11 -6 -31 -14 -45 -19 -14 -4 -60 -22 -101 -39 -197 -83 -656 -244 -955
-334 -49 -15 -103 -32 -120 -38 -149 -50 -883 -232 -1140 -283 -488 -96 -920
-162 -1335 -205 -102 -11 -198 -22 -215 -25 -58 -9 -440 -36 -810 -55 -246
-13 -956 -13 -1240 0 -303 14 -800 53 -951 76 -31 4 -45 2 -57 -11 -44 -44
-11 -79 174 -190 112 -66 398 -215 414 -215 3 0 24 -8 48 -19 172 -75 340
-135 592 -211 61 -18 343 -89 440 -109 199 -43 215 -46 525 -100 30 -6 78 -13
105 -16 28 -3 95 -13 150 -20 225 -32 384 -48 730 -75 643 -50 1616 -28 2225
50 41 6 129 17 195 25 226 29 452 68 775 132 622 123 1187 278 1581 432 l107
42 6 502 c4 276 6 672 4 879 l-3 378 -80 -46z"/>
<path d="M16135 9720 c-476 -54 -810 -200 -1065 -466 -262 -273 -390 -633
-390 -1100 0 -572 167 -995 515 -1298 223 -194 462 -333 980 -569 434 -197
538 -301 568 -570 21 -189 -24 -378 -105 -440 -58 -44 -107 -60 -209 -65 -280
-14 -387 120 -406 510 l-6 128 -699 0 -698 0 0 -98 c0 -127 24 -327 56 -471
128 -572 478 -932 1043 -1075 218 -55 360 -70 671 -70 362 -1 529 21 787 105
575 187 921 634 992 1281 14 125 14 421 0 546 -42 393 -178 698 -420 941 -197
200 -453 355 -929 566 -227 100 -399 186 -480 240 -83 55 -175 151 -201 210
-80 180 -56 450 48 546 58 55 89 64 213 64 99 0 121 -3 155 -22 113 -61 164
-174 181 -400 l7 -93 678 0 679 0 0 39 c0 169 -45 459 -96 623 -38 122 -123
291 -194 387 -219 295 -541 468 -1001 537 -123 18 -555 27 -674 14z"/>
<path d="M1560 8556 c0 -45 158 -563 257 -841 85 -239 209 -550 307 -770 115
-259 95 -233 216 -276 58 -20 150 -53 205 -74 55 -20 118 -43 140 -50 22 -8
72 -26 110 -40 39 -14 106 -39 150 -55 44 -16 132 -47 195 -70 104 -37 408
-139 520 -174 104 -33 414 -116 485 -130 17 -3 73 -15 125 -26 52 -11 275 -56
495 -101 220 -44 429 -86 465 -94 71 -16 375 -74 510 -99 47 -8 137 -24 200
-36 63 -11 140 -25 170 -30 180 -33 663 -100 940 -130 390 -42 900 -65 1240
-56 268 7 739 31 880 45 312 31 709 78 845 101 33 6 132 22 220 35 166 27 383
66 495 90 271 58 583 134 700 170 213 66 420 135 475 160 17 7 40 16 52 19 12
4 53 22 91 40 l69 34 6 483 c10 689 9 1049 -3 1049 -5 0 -24 -7 -42 -15 -52
-23 -341 -129 -473 -173 -173 -58 -345 -114 -380 -122 -16 -4 -70 -20 -120
-34 -90 -27 -147 -43 -330 -91 -103 -27 -140 -37 -305 -74 -540 -124 -991
-193 -1475 -227 -330 -23 -932 -23 -1230 0 -350 27 -807 86 -1130 145 -172 33
-212 40 -340 68 -66 14 -147 31 -180 38 -117 25 -243 55 -480 115 -236 59
-291 74 -470 126 -49 15 -112 32 -140 39 -27 7 -63 18 -80 23 -16 6 -61 20
-100 31 -133 38 -670 203 -770 235 -55 19 -181 59 -280 91 -99 32 -238 77
-310 100 -71 24 -265 87 -430 140 -165 53 -318 103 -340 110 -42 14 -352 112
-465 147 -137 42 -286 82 -450 121 -199 49 -240 54 -240 33z"/>
<path d="M11820 5394 c-157 -39 -328 -81 -380 -93 -52 -12 -140 -33 -195 -46
-243 -56 -449 -98 -805 -164 -245 -46 -573 -93 -805 -115 -88 -9 -200 -20
-250 -26 -186 -19 -621 -32 -946 -27 -461 7 -741 29 -1299 103 -177 24 -463
65 -485 70 -11 2 -51 9 -90 14 -81 10 -469 71 -710 110 -33 6 -141 21 -240 35
-99 13 -209 29 -245 35 -36 6 -103 14 -150 19 -47 5 -172 19 -277 30 -106 12
-275 28 -375 37 -234 19 -962 31 -1000 15 -40 -15 -38 -62 6 -129 38 -57 71
-91 131 -132 267 -183 775 -333 1620 -480 66 -11 156 -27 200 -34 44 -8 125
-22 180 -31 167 -28 326 -56 405 -71 41 -8 100 -19 130 -25 60 -11 464 -111
625 -154 120 -32 295 -77 545 -139 102 -26 217 -55 255 -65 39 -11 138 -36
220 -55 83 -20 173 -43 200 -50 70 -20 774 -190 865 -210 382 -82 930 -156
1405 -188 253 -17 1241 -17 1460 0 167 14 274 27 283 37 7 7 19 1776 12 1791
-3 7 -106 -15 -290 -62z"/>
<path d="M3851 4232 c61 -78 317 -351 523 -558 261 -261 465 -448 714 -657
354 -295 886 -686 966 -708 56 -15 366 -42 786 -69 601 -37 1374 15 1770 120
209 56 257 73 410 147 132 65 237 134 325 215 112 104 139 166 80 188 -66 25
-478 106 -815 160 -206 33 -194 31 -695 94 -524 66 -597 75 -735 92 -69 8
-168 21 -220 29 -52 8 -126 19 -165 25 -485 68 -825 141 -1275 270 -68 20
-417 140 -530 183 -166 63 -542 216 -655 266 -69 31 -108 48 -170 74 -33 14
-96 42 -140 62 -172 80 -189 86 -174 67z"/>
<path d="M11955 2804 c-22 -2 -110 -8 -195 -14 -669 -45 -1203 -115 -1557
-205 -108 -27 -123 -36 -123 -75 0 -24 10 -35 58 -65 78 -49 268 -142 442
-215 80 -34 159 -68 177 -76 17 -8 34 -14 38 -14 4 0 77 -34 162 -76 160 -78
302 -164 362 -220 l33 -31 -88 -27 c-49 -15 -107 -33 -129 -40 -22 -7 -76 -23
-120 -36 -44 -12 -100 -29 -125 -36 -190 -57 -660 -168 -965 -229 -420 -83
-941 -157 -1305 -185 -80 -6 -186 -16 -237 -21 -51 -5 -121 -9 -157 -9 -36 0
-67 -4 -70 -9 -7 -11 171 -78 471 -177 865 -286 1726 -456 2668 -525 157 -11
752 -28 771 -21 12 3 18 405 28 1720 l4 592 -51 -2 c-29 -1 -70 -3 -92 -4z"/>
</g>
</svg>
